<svg id="图层_1" data-name="图层 1" xmlns="http://www.w3.org/2000/svg" viewBox="0 0 500 500"><defs><style>.cls-1{fill:#fee50f;}</style></defs><path class="cls-1" d="M399.07,311.64l0,0a150.81,150.81,0,0,0,0-123.36l-90.66,40.51a52.07,52.07,0,1,0,0,42.36l90.66,40.51c-23.67,52.8-76.69,89.69-138.19,89.69-83.48,0-151.39-67.91-151.39-151.38S177.38,98.62,260.86,98.62A151.56,151.56,0,0,1,399,188.27L489.1,148C450.07,60.81,362.59,0,260.86,0c-138.07,0-250,111.93-250,250s111.93,250,250,250c101.77,0,189.27-60.85,228.28-148.12Z"/></svg>