<?xml version="1.0" encoding="UTF-8"?>
<!DOCTYPE svg PUBLIC "-//W3C//DTD SVG 1.1//EN" "http://www.w3.org/Graphics/SVG/1.1/DTD/svg11.dtd">
<svg version="1.1" xmlns="http://www.w3.org/2000/svg" xmlns:xlink="http://www.w3.org/1999/xlink" x="0" y="0" width="70" height="70" viewBox="0, 0, 70, 70">
  <g id="Background">
    <rect x="0" y="0" width="70" height="70" fill="#000000" fill-opacity="0"/>
  </g>
  <defs>
    <linearGradient id="Gradient_1" gradientUnits="userSpaceOnUse" x1="0" y1="0" x2="70" y2="70">
      <stop offset="1" stop-color="#633ABB"/>
      <stop offset="1" stop-color="#000000"/>
    </linearGradient>
    <clipPath id="Clip_1">
      <path d="M12.315,12.315 L57.685,12.315 L57.685,57.685 L12.315,57.685 z"/>
    </clipPath>
  </defs>
  <g id="Layer_1">
    <path d="M35,0 L35,0 C54.33,0 70,15.67 70,35 L70,35 C70,54.33 54.33,70 35,70 L35,70 C15.67,70 0,54.33 0,35 L0,35 C0,15.67 15.67,0 35,0 z" fill="url(#Gradient_1)"/>
    <g clip-path="url(#Clip_1)">
      <path d="M47.514,21.907 C48.914,21.907 50.049,20.751 50.049,19.325 C50.049,17.899 48.914,16.744 47.514,16.744 C46.114,16.744 44.979,17.899 44.979,19.325 C44.979,20.751 46.114,21.907 47.514,21.907 z" fill="#FFFFFF"/>
      <path d="M47.514,53.257 C48.914,53.257 50.049,52.101 50.049,50.675 C50.049,49.249 48.914,48.093 47.514,48.093 C46.114,48.093 44.979,49.249 44.979,50.675 C44.979,52.101 46.114,53.257 47.514,53.257 z" fill="#FFFFFF"/>
      <path d="M36.197,57.037 C37.597,57.037 38.732,55.881 38.732,54.455 C38.732,53.029 37.597,51.874 36.197,51.874 C34.797,51.874 33.662,53.029 33.662,54.455 C33.662,55.881 34.797,57.037 36.197,57.037 z" fill="#FFFFFF"/>
      <path d="M24.971,53.257 C26.371,53.257 27.506,52.101 27.506,50.675 C27.506,49.249 26.371,48.093 24.971,48.093 C23.571,48.093 22.436,49.249 22.436,50.675 C22.436,52.101 23.571,53.257 24.971,53.257 z" fill="#FFFFFF"/>
      <path d="M18.09,43.759 C19.49,43.759 20.625,42.603 20.625,41.178 C20.625,39.752 19.49,38.596 18.09,38.596 C16.69,38.596 15.555,39.752 15.555,41.178 C15.555,42.603 16.69,43.759 18.09,43.759 z" fill="#FFFFFF"/>
      <path d="M18.09,31.404 C19.49,31.404 20.625,30.248 20.625,28.822 C20.625,27.396 19.49,26.24 18.09,26.24 C16.69,26.24 15.555,27.396 15.555,28.822 C15.555,30.248 16.69,31.404 18.09,31.404 z" fill="#FFFFFF"/>
      <path d="M24.971,21.907 C26.371,21.907 27.506,20.751 27.506,19.325 C27.506,17.899 26.371,16.744 24.971,16.744 C23.571,16.744 22.436,17.899 22.436,19.325 C22.436,20.751 23.571,21.907 24.971,21.907 z" fill="#FFFFFF"/>
      <path d="M36.197,18.126 C37.597,18.126 38.732,16.97 38.732,15.545 C38.732,14.119 37.597,12.963 36.197,12.963 C34.797,12.963 33.662,14.119 33.662,15.545 C33.662,16.97 34.797,18.126 36.197,18.126 z" fill="#FFFFFF"/>
      <path d="M36.197,24.212 C36.947,24.212 37.555,23.593 37.555,22.829 C37.555,22.065 36.947,21.446 36.197,21.446 C35.447,21.446 34.839,22.065 34.839,22.829 C34.839,23.593 35.447,24.212 36.197,24.212 z" fill="#FFFFFF"/>
      <path d="M42.263,25.872 C43.013,25.872 43.621,25.252 43.621,24.489 C43.621,23.725 43.013,23.105 42.263,23.105 C41.513,23.105 40.905,23.725 40.905,24.489 C40.905,25.252 41.513,25.872 42.263,25.872 z" fill="#FFFFFF"/>
      <path d="M42.263,46.895 C43.013,46.895 43.621,46.275 43.621,45.511 C43.621,44.748 43.013,44.128 42.263,44.128 C41.513,44.128 40.905,44.748 40.905,45.511 C40.905,46.275 41.513,46.895 42.263,46.895 z" fill="#FFFFFF"/>
      <path d="M36.197,48.554 C36.947,48.554 37.555,47.935 37.555,47.171 C37.555,46.407 36.947,45.788 36.197,45.788 C35.447,45.788 34.839,46.407 34.839,47.171 C34.839,47.935 35.447,48.554 36.197,48.554 z" fill="#FFFFFF"/>
      <path d="M30.222,46.895 C30.972,46.895 31.58,46.275 31.58,45.511 C31.58,44.748 30.972,44.128 30.222,44.128 C29.472,44.128 28.864,44.748 28.864,45.511 C28.864,46.275 29.472,46.895 30.222,46.895 z" fill="#FFFFFF"/>
      <path d="M25.876,42.561 C26.626,42.561 27.234,41.941 27.234,41.178 C27.234,40.414 26.626,39.795 25.876,39.795 C25.126,39.795 24.518,40.414 24.518,41.178 C24.518,41.941 25.126,42.561 25.876,42.561 z" fill="#FFFFFF"/>
      <path d="M24.247,36.383 C24.997,36.383 25.604,35.763 25.604,35 C25.604,34.236 24.997,33.617 24.247,33.617 C23.497,33.617 22.889,34.236 22.889,35 C22.889,35.763 23.497,36.383 24.247,36.383 z" fill="#FFFFFF"/>
      <path d="M25.876,30.205 C26.626,30.205 27.234,29.586 27.234,28.822 C27.234,28.058 26.626,27.439 25.876,27.439 C25.126,27.439 24.518,28.058 24.518,28.822 C24.518,29.586 25.126,30.205 25.876,30.205 z" fill="#FFFFFF"/>
      <path d="M30.222,25.872 C30.972,25.872 31.58,25.252 31.58,24.489 C31.58,23.725 30.972,23.105 30.222,23.105 C29.472,23.105 28.864,23.725 28.864,24.489 C28.864,25.252 29.472,25.872 30.222,25.872 z" fill="#FFFFFF"/>
      <path d="M36.197,29.007 C36.597,29.007 36.921,28.676 36.921,28.269 C36.921,27.862 36.597,27.531 36.197,27.531 C35.797,27.531 35.472,27.862 35.472,28.269 C35.472,28.676 35.797,29.007 36.197,29.007 z" fill="#FFFFFF"/>
      <path d="M39.547,29.929 C39.947,29.929 40.271,29.598 40.271,29.191 C40.271,28.784 39.947,28.453 39.547,28.453 C39.147,28.453 38.822,28.784 38.822,29.191 C38.822,29.598 39.147,29.929 39.547,29.929 z" fill="#FFFFFF"/>
      <path d="M39.547,41.546 C39.947,41.546 40.271,41.216 40.271,40.809 C40.271,40.401 39.947,40.071 39.547,40.071 C39.147,40.071 38.822,40.401 38.822,40.809 C38.822,41.216 39.147,41.546 39.547,41.546 z" fill="#FFFFFF"/>
      <path d="M36.197,42.468 C36.597,42.468 36.921,42.138 36.921,41.731 C36.921,41.323 36.597,40.993 36.197,40.993 C35.797,40.993 35.472,41.323 35.472,41.731 C35.472,42.138 35.797,42.468 36.197,42.468 z" fill="#FFFFFF"/>
      <path d="M32.847,41.546 C33.247,41.546 33.571,41.216 33.571,40.809 C33.571,40.401 33.247,40.071 32.847,40.071 C32.447,40.071 32.123,40.401 32.123,40.809 C32.123,41.216 32.447,41.546 32.847,41.546 z" fill="#FFFFFF"/>
      <path d="M30.493,39.149 C30.893,39.149 31.218,38.819 31.218,38.412 C31.218,38.004 30.893,37.674 30.493,37.674 C30.093,37.674 29.769,38.004 29.769,38.412 C29.769,38.819 30.093,39.149 30.493,39.149 z" fill="#FFFFFF"/>
      <path d="M29.588,35.737 C29.988,35.737 30.312,35.407 30.312,35 C30.312,34.592 29.988,34.262 29.588,34.262 C29.188,34.262 28.864,34.592 28.864,35 C28.864,35.407 29.188,35.737 29.588,35.737 z" fill="#FFFFFF"/>
      <path d="M30.493,32.326 C30.893,32.326 31.218,31.996 31.218,31.588 C31.218,31.181 30.893,30.851 30.493,30.851 C30.093,30.851 29.769,31.181 29.769,31.588 C29.769,31.996 30.093,32.326 30.493,32.326 z" fill="#FFFFFF"/>
      <path d="M32.847,29.929 C33.247,29.929 33.571,29.598 33.571,29.191 C33.571,28.784 33.247,28.453 32.847,28.453 C32.447,28.453 32.123,28.784 32.123,29.191 C32.123,29.598 32.447,29.929 32.847,29.929 z" fill="#FFFFFF"/>
    </g>
  </g>
</svg>
